<svg xmlns="http://www.w3.org/2000/svg" width="800" height="450" viewBox="0 0 800 450">
  <!-- Background with gradient -->
  <defs>
    <linearGradient id="background-gradient" x1="0%" y1="0%" x2="100%" y2="100%">
      <stop offset="0%" stop-color="#2c2d5a" stop-opacity="0.05"/>
      <stop offset="100%" stop-color="#ff3366" stop-opacity="0.1"/>
    </linearGradient>
    
    <!-- Adobe CC logo gradient -->
    <linearGradient id="adobe-gradient" x1="0%" y1="0%" x2="100%" y2="100%">
      <stop offset="0%" stop-color="#2c2d5a"/>
      <stop offset="100%" stop-color="#ff3366"/>
    </linearGradient>
    
    <!-- Reddit upvote gradient -->
    <linearGradient id="upvote-gradient" x1="0%" y1="0%" x2="0%" y2="100%">
      <stop offset="0%" stop-color="#FF8b60"/>
      <stop offset="100%" stop-color="#FF4500"/>
    </linearGradient>
    
    <!-- Pattern for background -->
    <pattern id="dots-pattern" x="0" y="0" width="20" height="20" patternUnits="userSpaceOnUse">
      <circle cx="10" cy="10" r="1" fill="#2c2d5a" opacity="0.2"/>
    </pattern>
  </defs>
  
  <!-- Main background -->
  <rect width="800" height="450" fill="white"/>
  <rect width="800" height="450" fill="url(#background-gradient)"/>
  <rect width="800" height="450" fill="url(#dots-pattern)"/>
  
  <!-- Decorative elements -->
  <circle cx="100" cy="100" r="180" fill="#ff3366" opacity="0.05"/>
  <circle cx="700" cy="350" r="150" fill="#2c2d5a" opacity="0.05"/>
  
  <!-- Central design element: Community feedback visualization -->
  <g transform="translate(400, 225)">
    <!-- Central hub representing Adobe CC -->
    <circle cx="0" cy="0" r="70" fill="white" stroke="#2c2d5a" stroke-width="3"/>
    <g transform="translate(-40, -15) scale(0.8)">
      <rect x="0" y="0" width="100" height="100" rx="15" fill="url(#adobe-gradient)"/>
      <text x="50" y="65" font-family="Arial, sans-serif" font-size="45" font-weight="bold" fill="white" text-anchor="middle">CC</text>
    </g>
    
    <!-- Reddit community feedback elements -->
    <!-- Comment threads radiating from center -->
    <g>
      <!-- Thread 1 -->
      <path d="M50,50 Q120,80 170,30" stroke="#ff3366" stroke-width="2" fill="none"/>
      <circle cx="170" cy="30" r="25" fill="white" stroke="#ff3366" stroke-width="2"/>
      <text x="170" y="35" font-family="Arial, sans-serif" font-size="10" text-anchor="middle">Design</text>
      
      <!-- Thread 2 -->
      <path d="M50,-50 Q120,-80 170,-30" stroke="#ff3366" stroke-width="2" fill="none"/>
      <circle cx="170" cy="-30" r="25" fill="white" stroke="#ff3366" stroke-width="2"/>
      <text x="170" y="-25" font-family="Arial, sans-serif" font-size="10" text-anchor="middle">Video</text>
      
      <!-- Thread 3 -->
      <path d="M-50,-50 Q-120,-80 -170,-30" stroke="#2c2d5a" stroke-width="2" fill="none"/>
      <circle cx="-170" cy="-30" r="25" fill="white" stroke="#2c2d5a" stroke-width="2"/>
      <text x="-170" y="-25" font-family="Arial, sans-serif" font-size="10" text-anchor="middle">Photo</text>
      
      <!-- Thread 4 -->
      <path d="M-50,50 Q-120,80 -170,30" stroke="#2c2d5a" stroke-width="2" fill="none"/>
      <circle cx="-170" cy="30" r="25" fill="white" stroke="#2c2d5a" stroke-width="2"/>
      <text x="-170" y="35" font-family="Arial, sans-serif" font-size="10" text-anchor="middle">Web</text>
    </g>
    
    <!-- Reddit elements -->
    <!-- Upvote/downvote indicators -->
    <g transform="translate(-220, 0)">
      <rect x="-30" y="-60" width="60" height="120" rx="10" fill="white" stroke="#ccc" stroke-width="2"/>
      
      <!-- Upvote -->
      <path d="M0,-30 L15,-10 H5 V20 H-5 V-10 H-15 Z" fill="url(#upvote-gradient)"/>
      <text x="0" y="0" font-family="Arial, sans-serif" font-size="14" font-weight="bold" fill="#2c2d5a" text-anchor="middle">75%</text>
      
      <!-- Reddit alien logo -->
      <g transform="translate(0, 40) scale(0.4)">
        <circle cx="0" cy="0" r="30" fill="#FF4500"/>
        <circle cx="-10" cy="-10" r="7" fill="white"/>
        <circle cx="10" cy="-10" r="7" fill="white"/>
        <circle cx="-10" cy="-10" r="3" fill="black"/>
        <circle cx="10" cy="-10" r="3" fill="black"/>
        <path d="M-10,10 Q0,20 10,10" stroke="white" stroke-width="3" fill="none" stroke-linecap="round"/>
        <path d="M0,-30 L0,-20 M-15,-15 L-25,-25 M15,-15 L25,-25" stroke="white" stroke-width="3" fill="none" stroke-linecap="round"/>
      </g>
    </g>
  </g>
  
  <!-- Bottom banner for CheapCC -->
  <g transform="translate(400, 380)">
    <rect x="-200" y="-25" width="400" height="50" rx="25" fill="white" stroke="#2c2d5a" stroke-width="2"/>
    <text x="0" y="8" font-family="Arial, sans-serif" font-size="24" font-weight="bold" text-anchor="middle">
      <tspan fill="#2c2d5a">Cheap</tspan><tspan fill="#ff3366">CC</tspan>
      <tspan fill="#2c2d5a" font-size="16" font-weight="normal"> • Community Approved</tspan>
    </text>
  </g>
  
  <!-- Top text element -->
  <g transform="translate(400, 50)">
    <text x="0" y="0" font-family="Arial, sans-serif" font-size="24" font-weight="bold" fill="#2c2d5a" text-anchor="middle">Reddit Community Feedback</text>
    <text x="0" y="30" font-family="Arial, sans-serif" font-size="18" fill="#ff3366" text-anchor="middle">Adobe Creative Cloud 2025</text>
  </g>
</svg> 