<?xml version="1.0" encoding="UTF-8" standalone="no"?>
<svg width="800" height="600" viewBox="0 0 800 600" xmlns="http://www.w3.org/2000/svg">
  <!-- Background gradient -->
  <defs>
    <linearGradient id="backgroundGradient" x1="0%" y1="0%" x2="100%" y2="100%">
      <stop offset="0%" stop-color="#1E1E2E" />
      <stop offset="100%" stop-color="#2C2D5A" />
    </linearGradient>
    
    <!-- Adobe CC style gradient -->
    <linearGradient id="adobeGradient" x1="0%" y1="0%" x2="100%" y2="100%">
      <stop offset="0%" stop-color="#DA1F26" />
      <stop offset="100%" stop-color="#FF3366" />
    </linearGradient>
    
    <!-- Chart gradient -->
    <linearGradient id="chartGradient" x1="0%" y1="0%" x2="0%" y2="100%">
      <stop offset="0%" stop-color="#FF3366" stop-opacity="0.8" />
      <stop offset="100%" stop-color="#FF3366" stop-opacity="0.1" />
    </linearGradient>
  </defs>
  
  <!-- Background -->
  <rect width="800" height="600" fill="url(#backgroundGradient)" rx="12" ry="12" />
  
  <!-- Grid lines for data visualization aesthetic -->
  <g opacity="0.1" stroke="#FFFFFF" stroke-width="1">
    <line x1="100" y1="100" x2="700" y2="100" />
    <line x1="100" y1="175" x2="700" y2="175" />
    <line x1="100" y1="250" x2="700" y2="250" />
    <line x1="100" y1="325" x2="700" y2="325" />
    <line x1="100" y1="400" x2="700" y2="400" />
    <line x1="100" y1="475" x2="700" y2="475" />
    
    <line x1="100" y1="100" x2="100" y2="475" />
    <line x1="220" y1="100" x2="220" y2="475" />
    <line x1="340" y1="100" x2="340" y2="475" />
    <line x1="460" y1="100" x2="460" y2="475" />
    <line x1="580" y1="100" x2="580" y2="475" />
    <line x1="700" y1="100" x2="700" y2="475" />
  </g>
  
  <!-- Trend line chart -->
  <g>
    <!-- Area under chart -->
    <path d="M100,475 L100,350 C150,330 200,375 250,325 C300,275 350,250 400,225 C450,200 500,150 550,140 C600,130 650,150 700,120 L700,475 Z" 
          fill="url(#chartGradient)" opacity="0.8" />
          
    <!-- Main trend line -->
    <path d="M100,350 C150,330 200,375 250,325 C300,275 350,250 400,225 C450,200 500,150 550,140 C600,130 650,150 700,120" 
          stroke="#FF3366" stroke-width="4" fill="none" stroke-linecap="round" />
          
    <!-- Data points -->
    <circle cx="100" cy="350" r="8" fill="#FFF" />
    <circle cx="220" cy="340" r="8" fill="#FFF" />
    <circle cx="340" cy="240" r="8" fill="#FFF" />
    <circle cx="460" cy="210" r="8" fill="#FFF" />
    <circle cx="580" cy="140" r="8" fill="#FFF" />
    <circle cx="700" cy="120" r="8" fill="#FFF" />
    
    <!-- Growth indicator -->
    <text x="620" y="100" font-family="Arial, sans-serif" font-size="24" font-weight="bold" fill="#FF3366">+215%</text>
  </g>
  
  <!-- Reddit alien logo (stylized) -->
  <g transform="translate(120, 250) scale(0.5)">
    <circle cx="160" cy="120" r="110" fill="#FF5700" />
    <circle cx="120" cy="80" r="25" fill="white" />
    <circle cx="200" cy="80" r="25" fill="white" />
    <circle cx="120" cy="80" r="12" fill="black" />
    <circle cx="200" cy="80" r="12" fill="black" />
    <path d="M160,140 Q200,200 240,160 Q200,220 160,220 Q120,220 80,160 Q120,200 160,140" fill="white" />
    <path d="M160,50 L160,20 L200,40" stroke="white" stroke-width="8" fill="none" stroke-linecap="round" />
    <circle cx="220" cy="40" r="15" fill="white" />
  </g>
  
  <!-- Adobe CC icon (stylized) -->
  <g transform="translate(500, 240) scale(0.5)">
    <!-- Adobe CC square -->
    <rect x="100" y="100" width="200" height="200" rx="20" ry="20" fill="url(#adobeGradient)" />
    
    <!-- CC text -->
    <text x="140" y="230" font-family="Arial, sans-serif" font-size="100" font-weight="bold" fill="white">CC</text>
  </g>
  
  <!-- "CheapCC" text highlight -->
  <g transform="translate(400, 430)">
    <rect x="-80" y="-30" width="160" height="60" rx="30" ry="30" fill="#FF3366" opacity="0.8" />
    <text x="0" y="10" font-family="Arial, sans-serif" font-size="28" font-weight="bold" fill="white" text-anchor="middle">CheapCC</text>
  </g>
  
  <!-- Title -->
  <g transform="translate(400, 60)">
    <text x="0" y="0" font-family="Arial, sans-serif" font-size="36" font-weight="bold" fill="white" text-anchor="middle">Reddit Community Trends</text>
    <text x="0" y="50" font-family="Arial, sans-serif" font-size="30" font-weight="bold" fill="#FF3366" text-anchor="middle">Adobe Creative Cloud 2025</text>
  </g>
  
  <!-- Connecting lines between elements -->
  <g stroke="#FF3366" stroke-width="2" stroke-dasharray="5,5" opacity="0.7" fill="none">
    <path d="M180,250 C250,280 300,320 360,400" />
    <path d="M600,250 C550,300 500,350 440,400" />
  </g>
</svg> 