<?xml version="1.0" encoding="UTF-8" standalone="no"?>
<svg width="800" height="450" viewBox="0 0 800 450" version="1.1" xmlns="http://www.w3.org/2000/svg" xmlns:xlink="http://www.w3.org/1999/xlink">
    <defs>
        <linearGradient id="reddit-gradient" x1="0%" y1="0%" x2="100%" y2="100%">
            <stop offset="0%" stop-color="#FF5700" stop-opacity="0.9"/>
            <stop offset="100%" stop-color="#FF8C44" stop-opacity="0.9"/>
        </linearGradient>
        <linearGradient id="cc-gradient" x1="0%" y1="0%" x2="100%" y2="100%">
            <stop offset="0%" stop-color="#2C2D5A" stop-opacity="0.9"/>
            <stop offset="100%" stop-color="#FF3366" stop-opacity="0.9"/>
        </linearGradient>
        <linearGradient id="bg-gradient" x1="0%" y1="0%" x2="100%" y2="100%">
            <stop offset="0%" stop-color="#f8f9fa" stop-opacity="1"/>
            <stop offset="100%" stop-color="#eaecef" stop-opacity="1"/>
        </linearGradient>
    </defs>
    
    <!-- Background -->
    <rect width="800" height="450" fill="url(#bg-gradient)" />
    
    <!-- Decorative Circles -->
    <circle cx="650" cy="80" r="120" fill="#FF3366" fill-opacity="0.05" />
    <circle cx="700" cy="380" r="80" fill="#2C2D5A" fill-opacity="0.05" />
    <circle cx="150" cy="400" r="100" fill="#FF5700" fill-opacity="0.05" />
    
    <!-- Main Content Area -->
    <rect x="100" y="75" width="600" height="300" rx="15" ry="15" fill="white" stroke="#ddd" stroke-width="1" />
    
    <!-- Title Text - MOVED UP -->
    <text x="400" y="105" font-family="Arial, sans-serif" font-size="24" font-weight="bold" fill="#2C2D5A" text-anchor="middle">What Reddit Users Are Really Saying</text>
    <text x="400" y="135" font-family="Arial, sans-serif" font-size="22" font-weight="bold" fill="#FF3366" text-anchor="middle">About CheapCC in 2025</text>
    
    <!-- Reddit Logo Background Circle - MOVED DOWN -->
    <circle cx="200" cy="210" r="50" fill="url(#reddit-gradient)" />
    
    <!-- Reddit Snoo (Simplified) - MOVED DOWN -->
    <g transform="translate(165, 180)">
        <!-- Head -->
        <circle cx="35" cy="30" r="23" fill="white" />
        
        <!-- Eyes -->
        <circle cx="25" cy="25" r="4.5" fill="#FF5700" />
        <circle cx="45" cy="25" r="4.5" fill="#FF5700" />
        
        <!-- Antenna -->
        <line x1="35" y1="5" x2="35" y2="-8" stroke="white" stroke-width="3" />
        <circle cx="35" cy="-13" r="5" fill="white" />
        
        <!-- Smile -->
        <path d="M25,40 Q35,45 45,40" stroke="#FF5700" stroke-width="2" fill="transparent" />
    </g>
    
    <!-- Adobe CC Logo - MOVED DOWN -->
    <g transform="translate(600, 210)">
        <!-- CC Background -->
        <rect x="-45" y="-45" width="90" height="90" rx="12" ry="12" fill="url(#cc-gradient)" />
        
        <!-- CC Text -->
        <text x="-24" y="13" font-family="Arial, sans-serif" font-size="48" font-weight="bold" fill="white">CC</text>
    </g>
    
    <!-- Arrow Connecting Logos - ADJUSTED -->
    <g>
        <path d="M275,210 H530" stroke="#ddd" stroke-width="3" stroke-dasharray="10,5" />
        <polygon points="520,200 520,220 540,210" fill="#ddd" />
    </g>
    
    <!-- Review Stars - MOVED DOWN -->
    <g transform="translate(400, 250)">
        <!-- 5 Stars - MADE SMALLER -->
        <g fill="#FFD700">
            <polygon points="-70,0 -62,17 -45,22 -62,30 -58,48 -70,39 -82,48 -78,30 -95,22 -78,17" />
            <polygon points="-35,0 -27,17 -10,22 -27,30 -23,48 -35,39 -47,48 -43,30 -60,22 -43,17" />
            <polygon points="0,0 8,17 25,22 8,30 12,48 0,39 -12,48 -8,30 -25,22 -8,17" />
            <polygon points="35,0 43,17 60,22 43,30 47,48 35,39 23,48 27,30 10,22 27,17" />
            <polygon points="70,0 78,17 95,22 78,30 82,48 70,39 58,48 62,30 45,22 62,17" />
        </g>
    </g>
    
    <!-- Decorative Chat Bubbles -->
    <g transform="translate(280, 325)">
        <rect x="-60" y="-20" width="120" height="40" rx="15" ry="15" fill="#f1f2f3" stroke="#ddd" />
        <text x="0" y="0" font-family="Arial, sans-serif" font-size="12" fill="#888" text-anchor="middle">Genuine Reddit Reviews</text>
        <text x="0" y="15" font-family="Arial, sans-serif" font-size="10" fill="#999" text-anchor="middle">u/CreativeCommunity25</text>
    </g>
    
    <g transform="translate(520, 325)">
        <rect x="-70" y="-20" width="140" height="35" rx="15" ry="15" fill="#f1f2f3" stroke="#ddd" />
        <text x="0" y="5" font-family="Arial, sans-serif" font-size="12" fill="#888" text-anchor="middle">"Best CC Deal on Reddit!"</text>
    </g>
    
    <!-- Bottom Banner -->
    <rect x="0" y="420" width="800" height="30" fill="#2C2D5A" />
    <text x="400" y="440" font-family="Arial, sans-serif" font-size="12" fill="white" text-anchor="middle">blog.cheapcc.online • June 20, 2025</text>
</svg> 