<svg xmlns="http://www.w3.org/2000/svg" width="800" height="450" viewBox="0 0 800 450">
  <!-- Background with gradient -->
  <rect width="800" height="450" fill="url(#bg-gradient)" rx="12" ry="12" />
  
  <!-- Definitions -->
  <defs>
    <!-- Background gradient -->
    <linearGradient id="bg-gradient" x1="0%" y1="0%" x2="100%" y2="100%">
      <stop offset="0%" stop-color="#f8f9fa" />
      <stop offset="100%" stop-color="#e9ecef" />
    </linearGradient>
    
    <!-- Reddit logo gradient -->
    <linearGradient id="reddit-gradient" x1="0%" y1="0%" x2="100%" y2="100%">
      <stop offset="0%" stop-color="#FF5700" />
      <stop offset="100%" stop-color="#FF4500" />
    </linearGradient>
    
    <!-- Adobe CC gradient -->
    <linearGradient id="adobe-gradient" x1="0%" y1="0%" x2="100%" y2="100%">
      <stop offset="0%" stop-color="#2c2d5a" />
      <stop offset="100%" stop-color="#ff3366" />
    </linearGradient>
  </defs>
  
  <!-- Decorative elements -->
  <circle cx="150" cy="350" r="120" fill="#ff336610" />
  <circle cx="650" cy="100" r="150" fill="#2c2d5a10" />
  
  <!-- Main content group -->
  <g transform="translate(400, 225)">
    <!-- Reddit alien -->
    <g transform="translate(-150, -20) scale(0.8)">
      <circle cx="0" cy="0" r="60" fill="url(#reddit-gradient)" />
      <circle cx="-20" cy="-20" r="12" fill="white" />
      <circle cx="20" cy="-20" r="12" fill="white" />
      <circle cx="-20" cy="-20" r="6" fill="black" />
      <circle cx="20" cy="-20" r="6" fill="black" />
      <path d="M-20,20 Q0,40 20,20" stroke="white" stroke-width="5" fill="none" stroke-linecap="round" />
      <path d="M0,-60 L0,-40 M-35,-35 L-50,-50 M35,-35 L50,-50" stroke="white" stroke-width="5" fill="none" stroke-linecap="round" />
    </g>
    
    <!-- Adobe CC icon -->
    <g transform="translate(150, -20) scale(0.8)">
      <rect x="-50" y="-50" width="100" height="100" rx="15" ry="15" fill="url(#adobe-gradient)" />
      <text x="0" y="10" font-family="Arial, sans-serif" font-size="50" font-weight="bold" fill="white" text-anchor="middle">CC</text>
    </g>
    
    <!-- Connection lines -->
    <path d="M-80,0 L80,0" stroke="#2c2d5a" stroke-width="4" stroke-dasharray="10,5" />
    
    <!-- Chat bubbles -->
    <g transform="translate(0, 80)">
      <path d="M-100,-20 L-100,20 L-80,20 L-60,40 L-60,20 L-20,20 L-20,-20 Z" fill="#ff3366" opacity="0.8" />
      <path d="M20,-20 L20,20 L80,20 L80,-20 L60,-40 L40,-20 Z" fill="#2c2d5a" opacity="0.8" />
      
      <!-- Dots inside bubbles -->
      <circle cx="-60" cy="0" r="4" fill="white" />
      <circle cx="-60" cy="0" r="4" fill="white" />
      <circle cx="-50" cy="0" r="4" fill="white" />
      <circle cx="-40" cy="0" r="4" fill="white" />
      
      <circle cx="40" cy="0" r="4" fill="white" />
      <circle cx="50" cy="0" r="4" fill="white" />
      <circle cx="60" cy="0" r="4" fill="white" />
    </g>
  </g>
  
  <!-- Subtle grid pattern -->
  <path d="M0,50 L800,50 M0,150 L800,150 M0,250 L800,250 M0,350 L800,350 M50,0 L50,450 M150,0 L150,450 M250,0 L250,450 M350,0 L350,450 M450,0 L450,450 M550,0 L550,450 M650,0 L650,450 M750,0 L750,450" stroke="#00000010" stroke-width="1" />
</svg> 