<svg xmlns="http://www.w3.org/2000/svg" viewBox="0 0 32 32" width="32" height="32">
  <defs>
    <linearGradient id="gradient" x1="0%" y1="0%" x2="100%" y2="100%">
      <stop offset="0%" stop-color="#ff3366" />
      <stop offset="100%" stop-color="#ff6b8b" />
    </linearGradient>
  </defs>
  <rect width="32" height="32" rx="6" fill="#2c2d5a" />
  <g transform="translate(6, 6.5)">
    <path d="M6.5,19 C4.5,19 2.8,18.3 1.5,17 C0.2,15.7 -0.3,14 0.2,12 C0.7,10 1.8,8.4 3.5,7.5 C5.2,6.6 7,6.5 8.8,7.3 L7.5,10.5 C6.5,10.1 5.5,10.2 4.5,10.5 C3.5,10.9 3,11.8 3,13 C3,14.2 3.5,15 4.5,15.5 C5.5,16 6.5,16 7.5,15.5 L8.8,18.5 C8,18.8 7.2,19 6.5,19 Z" fill="url(#gradient)" />
    <path d="M16.5,19 C14.5,19 12.8,18.3 11.5,17 C10.2,15.7 9.7,14 10.2,12 C10.7,10 11.8,8.4 13.5,7.5 C15.2,6.6 17,6.5 18.8,7.3 L17.5,10.5 C16.5,10.1 15.5,10.2 14.5,10.5 C13.5,10.9 13,11.8 13,13 C13,14.2 13.5,15 14.5,15.5 C15.5,16 16.5,16 17.5,15.5 L18.8,18.5 C18,18.8 17.2,19 16.5,19 Z" fill="url(#gradient)" />
  </g>
</svg> 