<?xml version="1.0" encoding="UTF-8"?>
<svg width="32" height="32" viewBox="0 0 32 32" fill="none" xmlns="http://www.w3.org/2000/svg">
    <!-- Modern circular background with subtle gradient -->
    <defs>
        <linearGradient id="bg_gradient" x1="0%" y1="0%" x2="100%" y2="100%">
            <stop offset="0%" stop-color="#2c2d5a"/>
            <stop offset="100%" stop-color="#484a9e"/>
        </linearGradient>
        
        <filter id="shadow" x="-10%" y="-10%" width="120%" height="120%">
            <feDropShadow dx="0" dy="1" stdDeviation="0.5" flood-opacity="0.2"/>
        </filter>
    </defs>
    
    <!-- Background Circle -->
    <circle cx="16" cy="16" r="15" fill="url(#bg_gradient)" filter="url(#shadow)" stroke="#2c2d5a" stroke-width="1"/>
    
    <!-- Modern CC letters with cleaner geometry -->
    <g transform="translate(6.5, 11)" fill="#ff3366">
        <!-- First C -->
        <path d="M3.5 10C2.4 10 1.5 9.6 0.9 8.7C0.3 7.8 0 6.7 0 5.2C0 3.7 0.3 2.6 0.9 1.7C1.5 0.8 2.4 0.4 3.5 0.4C4.4 0.4 5.2 0.8 5.7 1.5L4.7 2.5C4.4 2.1 4 1.9 3.5 1.9C3 1.9 2.5 2.1 2.2 2.6C1.9 3.1 1.8 4 1.8 5.2C1.8 6.4 1.9 7.3 2.2 7.8C2.5 8.3 3 8.5 3.5 8.5C4 8.5 4.4 8.3 4.7 7.9L5.7 8.9C5.2 9.6 4.4 10 3.5 10Z" />
        
        <!-- Second C -->
        <path d="M12.5 10C11.4 10 10.5 9.6 9.9 8.7C9.3 7.8 9 6.7 9 5.2C9 3.7 9.3 2.6 9.9 1.7C10.5 0.8 11.4 0.4 12.5 0.4C13.4 0.4 14.2 0.8 14.7 1.5L13.7 2.5C13.4 2.1 13 1.9 12.5 1.9C12 1.9 11.5 2.1 11.2 2.6C10.9 3.1 10.8 4 10.8 5.2C10.8 6.4 10.9 7.3 11.2 7.8C11.5 8.3 12 8.5 12.5 8.5C13 8.5 13.4 8.3 13.7 7.9L14.7 8.9C14.2 9.6 13.4 10 12.5 10Z" />
    </g>
</svg> 