<?xml version="1.0" standalone="no"?>
<!DOCTYPE svg PUBLIC "-//W3C//DTD SVG 20010904//EN" "http://www.w3.org/TR/2001/REC-SVG-20010904/DTD/svg10.dtd">
<svg version="1.0" xmlns="http://www.w3.org/2000/svg" width="700.000000pt" height="700.000000pt" viewBox="0 0 700.000000 700.000000" preserveAspectRatio="xMidYMid meet">
  <g transform="translate(0.000000,700.000000) scale(0.100000,-0.100000)" fill="#000000" stroke="none">
    <path d="M3280 5880 c-471 -48 -880 -196 -1258 -455 -235 -161 -477 -398 -642
    -630 -400 -562 -548 -1259 -405 -1915 21 -94 89 -311 126 -400 221 -527 635
    -968 1165 -1241 137 -70 336 -149 470 -185 381 -103 787 -114 1194 -31 377 78
    778 272 1060 513 539 463 851 1108 869 1794 4 155 0 286 -13 370 -87 572 -375
    1098 -799 1464 -330 284 -699 467 -1122 553 -175 36 -269 45 -470 49 -99 2
    -159 6 -175 15 -29 17 -65 17 -95 0 -32 -17 -129 -18 -240 -1 -44 7 -188 13
    -317 15 -129 1 -287 -6 -348 -15z m645 -220 c77 -8 153 -18 170 -21 l30 -6
    -30 -24 c-35 -27 -70 -87 -85 -146 -8 -31 -10 -265 -8 -763 l3 -718 30 -48
    c37 -58 93 -93 165 -102 30 -3 61 -10 68 -14 10 -7 -105 -53 -188 -75 -98 -26
    -305 -25 -405 1 -228 60 -400 175 -556 372 -229 290 -354 637 -367 1024 -13
    368 83 702 285 982 88 122 218 249 327 319 l79 51 158 -407 c88 -223 164 -416
    170 -427 9 -17 3 -27 -38 -63 -187 -166 -273 -367 -263 -615 9 -239 92 -424
    259 -580 61 -58 149 -111 234 -140 84 -30 259 -27 341 5 48 19 40 25 -30 22
    -138 -6 -258 53 -349 170 -63 82 -111 202 -132 328 -15 93 -7 270 16 353 64
    223 244 421 467 511 32 13 58 26 58 30 0 8 73 192 148 372 30 72 63 152 73
    178 l18 47 38 -4 c20 -2 94 -11 172 -19z m715 -40 c443 -81 814 -278 1126
    -599 155 -159 266 -308 376 -508 252 -458 323 -1010 196 -1533 -94 -386 -313
    -762 -598 -1025 -75 -70 -233 -188 -300 -225 -30 -16 -69 -39 -85 -51 -29 -20
    -29 -20 -12 -3 66 70 118 207 131 347 5 51 8 395 8 763 0 659 0 673 -21 728
    -27 75 -84 145 -146 180 -46 27 -52 34 -40 42 9 7 89 42 136 61 75 30 154 36
    245 21 l75 -13 -75 -40 c-170 -91 -278 -240 -320 -440 -21 -98 -16 -286 11
    -380 92 -327 364 -557 696 -590 l77 -7 0 -324 0 -324 -130 0 c-157 0 -304 13
    -396 36 -424 103 -809 376 -1060 752 -76 113 -166 290 -210 412 -56 156 -106
    384 -117 535 -11 160 -7 384 10 510 44 322 152 620 314 865 191 289 481 540
    764 659 125 52 243 77 333 70 l65 -5 166 -427 c92 -236 167 -429 167 -431 0
    -1 -21 -19 -47 -38 -144 -107 -253 -290 -288 -486 -19 -104 -19 -135 -1 -228
    69 -346 354 -607 703 -645 120 -13 297 17 399 67 l42 21 -67 0 c-89 0 -193 35
    -272 91 -166 119 -253 300 -252 527 0 149 29 245 111 363 44 64 145 163 198
    194 19 11 34 23 34 26 0 6 332 852 337 857 1 2 14 1 29 -2 14 -3 64 -13 110
    -24z"/>
  </g>
</svg> 